<svg width="400" height="300" viewBox="0 0 400 300" fill="none" xmlns="http://www.w3.org/2000/svg">
  <defs>
    <linearGradient id="greenGradient" x1="0%" y1="0%" x2="100%" y2="100%">
      <stop offset="0%" style="stop-color:#10B981;stop-opacity:1" />
      <stop offset="100%" style="stop-color:#047857;stop-opacity:1" />
    </linearGradient>
  </defs>
  <rect width="400" height="300" fill="url(#greenGradient)"/>
  
  <!-- Briefcase -->
  <rect x="150" y="120" width="100" height="80" rx="8" fill="#1F2937"/>
  <rect x="155" y="125" width="90" height="70" rx="4" fill="#374151"/>
  <rect x="190" y="110" width="20" height="15" rx="4" fill="#1F2937"/>
  
  <!-- Handle -->
  <path d="M185 110C185 105 190 100 200 100C210 100 215 105 215 110" stroke="#1F2937" stroke-width="3" fill="none"/>
  
  <!-- Lock -->
  <circle cx="200" cy="160" r="8" fill="#F59E0B"/>
  <rect x="196" y="160" width="8" height="12" rx="2" fill="#F59E0B"/>
  
  <!-- Documents flying out -->
  <rect x="260" y="100" width="30" height="40" rx="2" fill="white" opacity="0.9" transform="rotate(15 275 120)"/>
  <rect x="265" y="105" width="20" height="2" fill="#6B7280" transform="rotate(15 275 120)"/>
  <rect x="265" y="110" width="15" height="2" fill="#6B7280" transform="rotate(15 275 120)"/>
  <rect x="265" y="115" width="18" height="2" fill="#6B7280" transform="rotate(15 275 120)"/>
  
  <rect x="280" y="130" width="25" height="35" rx="2" fill="white" opacity="0.8" transform="rotate(25 292.5 147.5)"/>
  <rect x="284" y="135" width="17" height="2" fill="#6B7280" transform="rotate(25 292.5 147.5)"/>
  <rect x="284" y="140" width="12" height="2" fill="#6B7280" transform="rotate(25 292.5 147.5)"/>
  <rect x="284" y="145" width="15" height="2" fill="#6B7280" transform="rotate(25 292.5 147.5)"/>
  
  <!-- Money symbols -->
  <circle cx="100" cy="100" r="15" fill="#F59E0B" opacity="0.8"/>
  <text x="100" y="107" font-family="Arial, sans-serif" font-size="16" font-weight="bold" fill="white" text-anchor="middle">₨</text>
  
  <circle cx="320" cy="180" r="15" fill="#F59E0B" opacity="0.8"/>
  <text x="320" y="187" font-family="Arial, sans-serif" font-size="16" font-weight="bold" fill="white" text-anchor="middle">₨</text>
  
  <!-- Growth arrow -->
  <path d="M80 200L120 160" stroke="#F59E0B" stroke-width="3" stroke-linecap="round"/>
  <path d="M115 165L120 160L115 155" stroke="#F59E0B" stroke-width="3" stroke-linecap="round" fill="none"/>
  
  <!-- Text -->
  <text x="200" y="250" font-family="Arial, sans-serif" font-size="18" font-weight="bold" fill="white" text-anchor="middle">Business Starter</text>
  <text x="200" y="270" font-family="Arial, sans-serif" font-size="14" fill="#D1FAE5" text-anchor="middle">Complete Kit</text>
</svg>
