<svg width="400" height="300" viewBox="0 0 400 300" fill="none" xmlns="http://www.w3.org/2000/svg">
  <defs>
    <linearGradient id="blueGradient" x1="0%" y1="0%" x2="100%" y2="100%">
      <stop offset="0%" style="stop-color:#3B82F6;stop-opacity:1" />
      <stop offset="100%" style="stop-color:#1E40AF;stop-opacity:1" />
    </linearGradient>
  </defs>
  <rect width="400" height="300" fill="url(#blueGradient)"/>
  
  <!-- Laptop -->
  <rect x="120" y="120" width="160" height="100" rx="8" fill="#1F2937" stroke="#374151" stroke-width="2"/>
  <rect x="130" y="130" width="140" height="80" rx="4" fill="#111827"/>
  
  <!-- Screen content -->
  <rect x="140" y="140" width="120" height="6" rx="3" fill="#3B82F6"/>
  <rect x="140" y="155" width="80" height="4" rx="2" fill="#6B7280"/>
  <rect x="140" y="165" width="100" height="4" rx="2" fill="#6B7280"/>
  <rect x="140" y="175" width="60" height="4" rx="2" fill="#6B7280"/>
  
  <!-- Chart -->
  <rect x="140" y="185" width="4" height="15" fill="#10B981"/>
  <rect x="150" y="180" width="4" height="20" fill="#F59E0B"/>
  <rect x="160" y="175" width="4" height="25" fill="#EF4444"/>
  <rect x="170" y="170" width="4" height="30" fill="#8B5CF6"/>
  
  <!-- Laptop base -->
  <ellipse cx="200" cy="220" rx="80" ry="8" fill="#374151"/>
  
  <!-- Icons around -->
  <circle cx="80" cy="80" r="20" fill="#10B981" opacity="0.8"/>
  <path d="M75 80L78 83L85 76" stroke="white" stroke-width="2" stroke-linecap="round" stroke-linejoin="round"/>
  
  <circle cx="320" cy="80" r="20" fill="#F59E0B" opacity="0.8"/>
  <rect x="312" y="72" width="16" height="16" rx="2" fill="white"/>
  <rect x="315" y="75" width="10" height="2" fill="#F59E0B"/>
  <rect x="315" y="79" width="6" height="2" fill="#F59E0B"/>
  <rect x="315" y="83" width="8" height="2" fill="#F59E0B"/>
  
  <circle cx="80" cy="220" r="20" fill="#EF4444" opacity="0.8"/>
  <path d="M72 220L80 212L88 220L80 228Z" fill="white"/>
  
  <circle cx="320" cy="220" r="20" fill="#8B5CF6" opacity="0.8"/>
  <circle cx="320" cy="220" r="8" fill="white"/>
  <circle cx="320" cy="220" r="4" fill="#8B5CF6"/>
  
  <!-- Text -->
  <text x="200" y="260" font-family="Arial, sans-serif" font-size="18" font-weight="bold" fill="white" text-anchor="middle">Digital Marketing</text>
  <text x="200" y="280" font-family="Arial, sans-serif" font-size="14" fill="#E5E7EB" text-anchor="middle">Masterclass</text>
</svg>
