<svg width="400" height="300" viewBox="0 0 400 300" fill="none" xmlns="http://www.w3.org/2000/svg">
  <defs>
    <linearGradient id="techGradient" x1="0%" y1="0%" x2="100%" y2="100%">
      <stop offset="0%" style="stop-color:#3B82F6;stop-opacity:1" />
      <stop offset="100%" style="stop-color:#1E40AF;stop-opacity:1" />
    </linearGradient>
  </defs>
  <rect width="400" height="300" fill="url(#techGradient)"/>
  
  <!-- Shopping cart -->
  <rect x="160" y="120" width="80" height="60" rx="8" fill="white" opacity="0.9"/>
  <circle cx="175" cy="190" r="8" fill="#374151"/>
  <circle cx="225" cy="190" r="8" fill="#374151"/>
  <path d="M150 110L160 110L170 140L230 140L240 110L250 110" stroke="white" stroke-width="3" fill="none"/>
  
  <!-- Products in cart -->
  <rect x="170" y="130" width="15" height="15" rx="2" fill="#10B981"/>
  <rect x="190" y="130" width="15" height="15" rx="2" fill="#F59E0B"/>
  <rect x="210" y="130" width="15" height="15" rx="2" fill="#EF4444"/>
  
  <!-- Mobile phone -->
  <rect x="100" y="80" width="40" height="70" rx="8" fill="#1F2937"/>
  <rect x="105" y="90" width="30" height="50" rx="4" fill="#111827"/>
  <circle cx="120" cy="155" r="4" fill="#374151"/>
  
  <!-- Screen content -->
  <rect x="110" y="95" width="20" height="3" rx="1.5" fill="#3B82F6"/>
  <rect x="110" y="102" width="15" height="2" rx="1" fill="#6B7280"/>
  <rect x="110" y="107" width="18" height="2" rx="1" fill="#6B7280"/>
  
  <!-- Laptop -->
  <rect x="260" y="140" width="60" height="40" rx="4" fill="#1F2937"/>
  <rect x="265" y="145" width="50" height="30" rx="2" fill="#111827"/>
  <ellipse cx="290" cy="180" rx="30" ry="4" fill="#374151"/>
  
  <!-- Screen content -->
  <rect x="270" y="150" width="40" height="3" rx="1.5" fill="#10B981"/>
  <rect x="270" y="157" width="25" height="2" rx="1" fill="#6B7280"/>
  <rect x="270" y="162" width="35" height="2" rx="1" fill="#6B7280"/>
  
  <!-- Pakistan flag colors accent -->
  <rect x="50" y="50" width="8" height="20" fill="#01411C"/>
  <rect x="50" y="70" width="8" height="20" fill="white"/>
  <circle cx="54" cy="65" r="6" fill="white"/>
  <path d="M51 65L53 67L57 63" stroke="#01411C" stroke-width="1" stroke-linecap="round" stroke-linejoin="round"/>
  
  <!-- Growth arrows -->
  <path d="M320 80L340 60" stroke="#10B981" stroke-width="3" stroke-linecap="round"/>
  <path d="M335 65L340 60L335 55" stroke="#10B981" stroke-width="3" stroke-linecap="round" fill="none"/>
  
  <path d="M340 200L360 180" stroke="#10B981" stroke-width="3" stroke-linecap="round"/>
  <path d="M355 185L360 180L355 175" stroke="#10B981" stroke-width="3" stroke-linecap="round" fill="none"/>
  
  <!-- Text */}
  <text x="200" y="240" font-family="Arial, sans-serif" font-size="16" font-weight="bold" fill="white" text-anchor="middle">E-commerce in Pakistan</text>
  <text x="200" y="260" font-family="Arial, sans-serif" font-size="12" fill="#BFDBFE" text-anchor="middle">Future Opportunities</text>
</svg>
