<svg width="400" height="300" viewBox="0 0 400 300" fill="none" xmlns="http://www.w3.org/2000/svg">
  <defs>
    <linearGradient id="businessGradient" x1="0%" y1="0%" x2="100%" y2="100%">
      <stop offset="0%" style="stop-color:#10B981;stop-opacity:1" />
      <stop offset="100%" style="stop-color:#047857;stop-opacity:1" />
    </linearGradient>
  </defs>
  <rect width="400" height="300" fill="url(#businessGradient)"/>
  
  <!-- Money tree -->
  <ellipse cx="200" cy="220" rx="40" ry="8" fill="#065F46" opacity="0.6"/>
  <rect x="195" y="160" width="10" height="60" fill="#92400E"/>
  
  <!-- Tree crown -->
  <circle cx="200" cy="140" r="35" fill="#16A34A"/>
  <circle cx="180" cy="130" r="25" fill="#15803D"/>
  <circle cx="220" cy="130" r="25" fill="#15803D"/>
  
  <!-- Money leaves -->
  <circle cx="170" cy="120" r="8" fill="#F59E0B"/>
  <text x="170" y="125" font-family="Arial, sans-serif" font-size="10" font-weight="bold" fill="white" text-anchor="middle">₨</text>
  
  <circle cx="200" cy="110" r="8" fill="#F59E0B"/>
  <text x="200" y="115" font-family="Arial, sans-serif" font-size="10" font-weight="bold" fill="white" text-anchor="middle">₨</text>
  
  <circle cx="230" cy="120" r="8" fill="#F59E0B"/>
  <text x="230" y="125" font-family="Arial, sans-serif" font-size="10" font-weight="bold" fill="white" text-anchor="middle">₨</text>
  
  <circle cx="185" cy="145" r="8" fill="#F59E0B"/>
  <text x="185" y="150" font-family="Arial, sans-serif" font-size="10" font-weight="bold" fill="white" text-anchor="middle">₨</text>
  
  <circle cx="215" cy="145" r="8" fill="#F59E0B"/>
  <text x="215" y="150" font-family="Arial, sans-serif" font-size="10" font-weight="bold" fill="white" text-anchor="middle">₨</text>
  
  <!-- Falling money -->
  <circle cx="120" cy="80" r="6" fill="#F59E0B" opacity="0.8"/>
  <text x="120" y="84" font-family="Arial, sans-serif" font-size="8" font-weight="bold" fill="white" text-anchor="middle">₨</text>
  
  <circle cx="280" cy="100" r="6" fill="#F59E0B" opacity="0.8"/>
  <text x="280" y="104" font-family="Arial, sans-serif" font-size="8" font-weight="bold" fill="white" text-anchor="middle">₨</text>
  
  <circle cx="300" cy="180" r="6" fill="#F59E0B" opacity="0.8"/>
  <text x="300" y="184" font-family="Arial, sans-serif" font-size="8" font-weight="bold" fill="white" text-anchor="middle">₨</text>
  
  <!-- Watering can -->
  <ellipse cx="100" cy="180" rx="15" ry="10" fill="#6B7280"/>
  <rect x="85" y="175" width="8" height="15" rx="4" fill="#6B7280"/>
  <path d="M85 175C85 175 75 170 70 175" stroke="#6B7280" stroke-width="3" fill="none"/>
  
  <!-- Water drops -->
  <circle cx="130" cy="160" r="2" fill="#3B82F6" opacity="0.7"/>
  <circle cx="140" cy="170" r="2" fill="#3B82F6" opacity="0.7"/>
  <circle cx="150" cy="180" r="2" fill="#3B82F6" opacity="0.7"/>
  
  <!-- Social media icons -->
  <circle cx="320" cy="60" r="15" fill="white" opacity="0.9"/>
  <rect x="312" y="52" width="16" height="16" rx="3" fill="#1877F2"/>
  <text x="320" y="62" font-family="Arial, sans-serif" font-size="12" font-weight="bold" fill="white" text-anchor="middle">f</text>
  
  <circle cx="80" cy="60" r="15" fill="white" opacity="0.9"/>
  <circle cx="80" cy="60" r="12" fill="#E4405F"/>
  <circle cx="80" cy="60" r="4" fill="white"/>
  <circle cx="85" cy="55" r="2" fill="white"/>
  
  <!-- Text */}
  <text x="200" y="260" font-family="Arial, sans-serif" font-size="16" font-weight="bold" fill="white" text-anchor="middle">Building Passive Income</text>
  <text x="200" y="280" font-family="Arial, sans-serif" font-size="12" fill="#D1FAE5" text-anchor="middle">Through Social Sales</text>
</svg>
